HIERARCHY
ROOT joint_Root
{
	OFFSET 0.0 0.0 0.0
	CHANNELS 6 Xposition Yposition Zposition Zrotation Xrotation Yrotation 
	JOINT Hips
	{
		OFFSET 4.5925 91.4895 -427.239
		CHANNELS 6 Xposition Yposition Zposition Zrotation Xrotation Yrotation 
		JOINT Spine
		{
			OFFSET 15.7357 0.0 0.0
			CHANNELS 6 Xposition Yposition Zposition Zrotation Xrotation Yrotation 
			JOINT Chest
			{
				OFFSET 8.98455 -0.406207 0.0
				CHANNELS 6 Xposition Yposition Zposition Zrotation Xrotation Yrotation 
				JOINT Neck
				{
					OFFSET 16.3773 0.0 0.0
					CHANNELS 6 Xposition Yposition Zposition Zrotation Xrotation Yrotation 
					JOINT Head
					{
						OFFSET 6.45672 0.0 0.0
						CHANNELS 6 Xposition Yposition Zposition Zrotation Xrotation Yrotation 
						End Site
						{
							OFFSET 0.0 0.0 0.0
						}
					}
				}
				JOINT Shoulder_L
				{
					OFFSET 12.9942 -0.242716 4.98039
					CHANNELS 6 Xposition Yposition Zposition Zrotation Xrotation Yrotation 
					JOINT UpperArm_L
					{
						OFFSET 5.34809 0.0 0.0
						CHANNELS 6 Xposition Yposition Zposition Zrotation Xrotation Yrotation 
						JOINT LowerArm_L
						{
							OFFSET 24.3286 1.87007e-05 0.0
							CHANNELS 6 Xposition Yposition Zposition Zrotation Xrotation Yrotation 
							JOINT Hand_L
							{
								OFFSET 22.2916 0.0 0.0
								CHANNELS 6 Xposition Yposition Zposition Zrotation Xrotation Yrotation 
								End Site
								{
									OFFSET 0.0 0.0 0.0
								}
							}
						}
					}
				}
				JOINT Shoulder_R
				{
					OFFSET 12.9945 -0.242716 -4.98039
					CHANNELS 6 Xposition Yposition Zposition Zrotation Xrotation Yrotation 
					JOINT UpperArm_R
					{
						OFFSET -5.34813 0.0 0.0
						CHANNELS 6 Xposition Yposition Zposition Zrotation Xrotation Yrotation 
						JOINT LowerArm_R
						{
							OFFSET -24.3289 0.000322201 0.0
							CHANNELS 6 Xposition Yposition Zposition Zrotation Xrotation Yrotation 
							JOINT Hand_R
							{
								OFFSET -22.2915 -0.000108084 0.0
								CHANNELS 6 Xposition Yposition Zposition Zrotation Xrotation Yrotation 
								End Site
								{
									OFFSET 0.0 0.0 0.0
								}
							}
						}
					}
				}
			}
		}
		JOINT UpperLeg_L
		{
			OFFSET -2.19248 -6.46944 0.0
			CHANNELS 6 Xposition Yposition Zposition Zrotation Xrotation Yrotation 
			JOINT LowerLeg_L
			{
				OFFSET 39.0811 0.0 -1.23785e-05
				CHANNELS 6 Xposition Yposition Zposition Zrotation Xrotation Yrotation 
				JOINT Foot_L
				{
					OFFSET 40.9854 0.0 -1.26872e-05
					CHANNELS 6 Xposition Yposition Zposition Zrotation Xrotation Yrotation 
					JOINT Toes_L
					{
						OFFSET 11.7543 0.0 0.0
						CHANNELS 6 Xposition Yposition Zposition Zrotation Xrotation Yrotation 
						End Site
						{
							OFFSET 0.0 0.0 0.0
						}
					}
				}
			}
		}
		JOINT UpperLeg_R
		{
			OFFSET -2.19251 6.46944 0.0
			CHANNELS 6 Xposition Yposition Zposition Zrotation Xrotation Yrotation 
			JOINT LowerLeg_R
			{
				OFFSET -39.0811 -0.00228153 -0.0401928
				CHANNELS 6 Xposition Yposition Zposition Zrotation Xrotation Yrotation 
				JOINT Foot_R
				{
					OFFSET -40.9854 0.0 0.0
					CHANNELS 6 Xposition Yposition Zposition Zrotation Xrotation Yrotation 
					JOINT Toes_R
					{
						OFFSET -11.7543 0.0 0.0
						CHANNELS 6 Xposition Yposition Zposition Zrotation Xrotation Yrotation 
						End Site
						{
							OFFSET 0.0 0.0 0.0
						}
					}
				}
			}
		}
	}
}
MOTION
Frames:	9
Frame Time:	0.0333333
0.000000 0.000000 0.000000 0.000000 0.000000 -0.000000 -0.741033 82.553800 -4.178910 88.534900 -1.030610 9.598530 15.735700 0.000005 -0.000001 88.419800 81.314800 -87.930100 8.984550 -0.406207 -0.000000 9.600150 -0.468363 1.018080 16.377300 -0.000001 -0.000001 -2.714380 -4.050020 1.862460 6.456720 -0.000001 -0.000000 -2.806630 -3.933900 5.487760 12.994200 -0.242716 4.980390 -91.478200 5.134790 -73.915500 5.348090 -0.000007 -0.000001 -61.794800 12.603100 -14.211100 24.328600 0.000019 0.000005 16.525800 16.385700 -46.448700 22.291600 -0.000001 0.000005 4.888780 5.382830 -2.386540 12.994500 -0.242716 -4.980390 88.445400 8.731500 -79.863600 -5.348130 -0.000001 -0.000004 -60.615300 32.842700 -5.968410 -24.328900 0.000322 -0.000009 3.436900 4.678090 -36.381300 -22.291500 -0.000108 -0.000004 17.480900 5.493550 -6.284530 -2.192480 -6.469440 -0.000000 -173.497000 -12.631900 -19.175200 39.081100 -0.000007 -0.000012 -0.298457 0.158290 62.061200 40.985400 -0.000006 -0.000013 3.236930 8.212930 -83.296700 11.754300 -0.000000 0.000003 -0.000330 -0.002818 -16.682200 -2.192510 6.469440 -0.000001 177.205000 16.129200 162.124000 -39.081100 -0.002282 -0.040193 0.100443 -0.052770 61.515100 -40.985400 0.000008 0.000006 7.239280 5.590390 -84.163400 -11.754300 -0.000006 -0.000006 -0.043760 -0.058864 -16.855300
0.000000 0.000000 0.000000 0.000000 0.000000 -0.000000 -0.521615 84.064000 -3.446110 89.352400 -1.143990 9.808150 15.735700 0.000005 -0.000001 88.055200 82.092200 -87.150400 8.984550 -0.406207 -0.000000 8.045620 -0.532188 1.845380 16.377300 -0.000001 -0.000001 -1.009760 -3.865620 1.785660 6.456720 -0.000001 -0.000000 -1.857450 -3.472200 4.126550 12.994200 -0.242716 4.980390 -91.225600 4.047980 -73.137600 5.348090 -0.000007 -0.000001 -54.539000 5.075170 -20.582800 24.328600 0.000019 0.000005 15.941600 11.481800 -55.148900 22.291600 -0.000001 0.000005 7.937930 5.365430 -1.853360 12.994500 -0.242716 -4.980390 88.370700 8.172040 -78.683600 -5.348130 -0.000001 -0.000004 -62.766000 29.916200 -3.173560 -24.328900 0.000322 -0.000009 2.376730 3.666890 -32.961600 -22.291500 -0.000108 -0.000004 19.332900 5.486050 -5.980800 -2.192480 -6.469440 -0.000000 -174.217000 -13.457100 -15.920900 39.081100 -0.000007 -0.000012 -0.260998 0.167124 57.368300 40.985400 -0.000006 -0.000013 3.383320 8.807610 -81.641300 11.754300 -0.000000 0.000003 -0.000313 -0.002692 -16.677700 -2.192510 6.469440 -0.000001 176.220000 15.133500 164.960000 -39.081100 -0.002282 -0.040193 0.085023 -0.052471 57.324100 -40.985400 0.000008 0.000006 6.679250 5.281510 -82.501600 -11.754300 -0.000006 -0.000006 -0.000742 -0.011672 -17.047900
0.000000 0.000000 0.000000 0.000000 0.000000 -0.000000 -0.350145 86.425900 -2.677820 90.173100 -1.084960 9.782590 15.735700 0.000005 -0.000001 87.098200 83.075400 -85.811800 8.984550 -0.406207 -0.000000 6.075210 -0.718150 2.608020 16.377300 -0.000001 -0.000001 1.008160 -3.927560 1.770720 6.456720 -0.000001 -0.000000 -0.925087 -3.287910 2.971540 12.994200 -0.242716 4.980390 -90.572900 1.863460 -72.910400 5.348090 -0.000007 -0.000001 -47.835900 -7.198130 -29.576900 24.328600 0.000019 0.000005 9.548790 5.342110 -61.076100 22.291600 -0.000001 0.000005 11.691300 5.336370 -0.991642 12.994500 -0.242716 -4.980390 88.310400 7.425330 -77.141500 -5.348130 -0.000001 -0.000004 -63.832100 28.475300 -0.736465 -24.328900 0.000322 -0.000009 0.498534 0.907940 -28.804200 -22.291500 -0.000108 -0.000004 19.555200 5.485800 -5.971890 -2.192480 -6.469440 -0.000000 -175.047000 -13.956600 -11.343600 39.081100 -0.000007 -0.000012 -0.193077 0.165295 49.433700 40.985400 -0.000006 -0.000013 3.120510 9.391880 -78.305400 11.754300 -0.000000 0.000003 -0.000242 -0.002174 -16.659100 -2.192510 6.469440 -0.000001 175.318000 14.337000 169.075000 -39.081100 -0.002282 -0.040193 0.063974 -0.050826 50.071900 -40.985400 0.000008 0.000006 6.023400 5.209290 -79.183400 -11.754300 -0.000006 -0.000006 -0.001153 -0.017557 -17.287100
0.000000 0.000000 0.000000 0.000000 0.000000 -0.000000 -0.260022 88.776000 -1.940700 90.188900 -0.825725 9.125860 15.735700 0.000005 -0.000001 83.769400 84.163100 -81.863900 8.984550 -0.406207 -0.000000 3.864720 -1.330010 3.851760 16.377300 -0.000001 -0.000001 2.511070 -4.229860 1.871170 6.456720 -0.000001 -0.000000 -0.272186 -3.135790 2.224770 12.994200 -0.242716 4.980390 -89.742600 -0.879642 -73.657400 5.348090 -0.000007 -0.000001 -42.586600 -22.832900 -39.081900 24.328600 0.000019 0.000005 1.495640 0.725725 -64.170400 22.291600 -0.000001 0.000005 17.980200 5.333030 -0.875650 12.994500 -0.242716 -4.980390 88.379700 6.306410 -75.557500 -5.348130 -0.000001 -0.000004 -63.651800 27.214500 1.343720 -24.328900 0.000322 -0.000009 1.202280 2.466090 -26.035700 -22.291500 -0.000108 -0.000004 17.458800 5.469080 -5.325350 -2.192480 -6.469440 -0.000000 -175.313000 -13.634200 -7.001330 39.081100 -0.000007 -0.000012 -0.128845 0.150953 40.482700 40.985400 -0.000006 -0.000013 2.456120 9.602280 -74.358700 11.754300 -0.000000 0.000003 -0.000141 -0.001382 -16.630200 -2.192510 6.469440 -0.000001 175.171000 14.919900 173.273000 -39.081100 -0.002282 -0.040193 0.044944 -0.047149 41.470000 -40.985400 0.000008 0.000006 5.629600 6.037370 -75.039200 -11.754300 -0.000006 -0.000006 -0.002286 -0.032237 -17.884000
0.000000 0.000000 0.000000 0.000000 0.000000 -0.000000 -0.132721 90.540700 -1.580980 90.055900 -1.671910 6.947380 15.735700 0.000005 -0.000001 78.270200 85.455000 -75.647200 8.984550 -0.406207 -0.000000 1.186060 -1.997630 5.262700 16.377300 -0.000001 -0.000001 3.111230 -3.754930 2.051060 6.456720 -0.000001 -0.000000 -0.283788 -2.869060 1.913120 12.994200 -0.242716 4.980390 -88.730300 -4.598230 -74.541900 5.348090 -0.000007 -0.000001 -43.407000 -41.072200 -49.984200 24.328600 0.000019 0.000005 -0.129962 -0.063633 -63.935200 22.291600 -0.000001 0.000005 19.622100 5.384110 -2.420910 12.994500 -0.242716 -4.980390 88.618200 5.169410 -75.012700 -5.348130 -0.000001 -0.000004 -61.817700 26.043900 3.102780 -24.328900 0.000322 -0.000009 2.458410 5.131380 -25.651300 -22.291500 -0.000108 -0.000004 15.492900 5.442580 -4.372040 -2.192480 -6.469440 -0.000000 -175.806000 -13.938400 -4.875850 39.081100 -0.000007 -0.000012 -0.098248 0.154649 32.427900 40.985400 -0.000006 -0.000013 1.688950 9.093130 -70.582700 11.754300 -0.000000 0.000003 -0.000100 -0.001030 -16.617100 -2.192510 6.469440 -0.000001 175.347000 16.752600 175.077000 -39.081100 -0.002282 -0.040193 0.029629 -0.039413 33.750000 -40.985400 0.000008 0.000006 5.773540 8.944120 -71.212100 -11.754300 -0.000006 -0.000006 -0.002892 -0.039376 -18.174400
0.000000 0.000000 0.000000 0.000000 0.000000 -0.000000 0.294892 91.648400 -1.417200 89.803500 -3.832740 4.847340 15.735700 0.000005 -0.000001 74.336100 86.372200 -71.010500 8.984550 -0.406207 -0.000000 -0.707191 -2.204210 6.635070 16.377300 -0.000001 -0.000001 2.957740 -2.901660 2.239270 6.456720 -0.000001 -0.000000 -0.841843 -2.300520 2.601050 12.994200 -0.242716 4.980390 -87.374800 -9.385890 -74.299800 5.348090 -0.000007 -0.000001 -45.961800 -55.477300 -61.930300 24.328600 0.000019 0.000005 -4.659910 -2.921470 -58.114000 22.291600 -0.000001 0.000005 23.526800 5.464570 -5.122330 12.994500 -0.242716 -4.980390 88.682900 4.957820 -75.101600 -5.348130 -0.000001 -0.000004 -58.063800 25.230600 4.138480 -24.328900 0.000322 -0.000009 2.387730 4.803820 -26.482600 -22.291500 -0.000108 -0.000004 15.070000 5.439530 -4.268330 -2.192480 -6.469440 -0.000000 -176.451000 -14.390300 -3.621120 39.081100 -0.000007 -0.000012 -0.084488 0.171044 26.287300 40.985400 -0.000006 -0.000013 1.094460 7.346130 -67.783800 11.754300 -0.000000 0.000003 -0.000068 -0.000736 -16.606000 -2.192510 6.469440 -0.000001 175.140000 20.219800 176.019000 -39.081100 -0.002282 -0.040193 0.019639 -0.031286 27.565900 -40.985400 0.000008 0.000006 5.862500 14.821600 -68.356900 -11.754300 -0.000006 -0.000006 -0.003236 -0.043246 -18.331900
0.000000 0.000000 0.000000 0.000000 0.000000 -0.000000 0.878034 92.247400 -1.309160 89.607700 -6.810370 3.549240 15.735700 0.000005 -0.000001 73.683200 86.895100 -69.727900 8.984550 -0.406207 -0.000000 -1.722910 -2.071340 7.878370 16.377300 -0.000001 -0.000001 2.819320 -1.510240 1.393080 6.456720 -0.000001 -0.000000 -1.068270 -1.981520 3.778950 12.994200 -0.242716 4.980390 -85.564500 -14.259800 -72.525100 5.348090 -0.000007 -0.000001 -37.996700 -64.384500 -62.431300 24.328600 0.000019 0.000005 -6.063660 -5.326350 -48.797300 22.291600 -0.000001 0.000005 22.664800 5.498420 -6.463010 12.994500 -0.242716 -4.980390 88.658600 5.379550 -75.975700 -5.348130 -0.000001 -0.000004 -53.803400 23.700300 4.991360 -24.328900 0.000322 -0.000009 2.198630 4.200610 -27.671300 -22.291500 -0.000108 -0.000004 15.725400 5.446160 -4.502910 -2.192480 -6.469440 -0.000000 -177.056000 -15.236700 -2.543200 39.081100 -0.000007 -0.000012 -0.082514 0.201988 22.220600 40.985400 -0.000006 -0.000013 0.787325 5.121410 -66.084400 11.754300 -0.000000 0.000003 -0.000073 -0.000790 -16.608000 -2.192510 6.469440 -0.000001 174.642000 23.680800 176.879000 -39.081100 -0.002282 -0.040193 0.013157 -0.023190 22.994100 -40.985400 0.000008 0.000006 5.440890 21.447000 -66.406000 -11.754300 -0.000006 -0.000006 -0.003627 -0.047499 -18.505100
0.000000 0.000000 0.000000 0.000000 0.000000 -0.000000 1.334480 92.497400 -1.215250 89.366100 -9.818340 3.000280 15.735700 0.000005 -0.000001 74.994500 86.911700 -70.546500 8.984550 -0.406207 -0.000000 -1.708500 -1.966050 8.865350 16.377300 -0.000001 -0.000001 2.721260 -0.635803 0.375800 6.456720 -0.000001 -0.000000 -2.305870 -1.650600 4.180900 12.994200 -0.242716 4.980390 -84.006100 -16.434700 -69.640900 5.348090 -0.000007 -0.000001 -5.807560 -66.699700 -39.914900 24.328600 0.000019 0.000005 -1.025520 -1.260930 -38.791300 22.291600 -0.000001 0.000005 18.046000 5.494060 -6.283880 12.994500 -0.242716 -4.980390 88.400300 6.442280 -76.024100 -5.348130 -0.000001 -0.000004 -49.435600 21.956200 3.842410 -24.328900 0.000322 -0.000009 3.007910 5.646700 -28.113100 -22.291500 -0.000108 -0.000004 16.091700 5.438900 -4.248310 -2.192480 -6.469440 -0.000000 -177.162000 -17.204600 -1.668850 39.081100 -0.000007 -0.000012 -0.073726 0.200086 20.227400 40.985400 -0.000006 -0.000013 0.782771 4.087400 -65.443000 11.754300 -0.000000 0.000003 -0.000056 -0.000621 -16.601600 -2.192510 6.469440 -0.000001 174.587000 24.159700 177.638000 -39.081100 -0.002282 -0.040193 0.001037 0.006311 19.896100 -40.985400 0.000008 0.000006 4.846070 25.030500 -65.365300 -11.754300 -0.000006 -0.000006 -0.003772 -0.049043 -18.567900
0.000000 0.000000 0.000000 0.000000 0.000000 -0.000000 1.658090 92.546100 -1.227050 89.197900 -11.974100 3.100010 15.735700 0.000005 -0.000001 77.001200 86.662500 -72.230200 8.984550 -0.406207 -0.000000 -1.166380 -1.872360 9.520130 16.377300 -0.000001 -0.000001 3.129470 -0.659494 -0.164429 6.456720 -0.000001 -0.000000 -3.960630 -1.543530 4.147120 12.994200 -0.242716 4.980390 -82.871400 -16.345600 -66.040600 5.348090 -0.000007 -0.000001 10.379400 -66.490300 -30.730000 24.328600 0.000019 0.000005 4.362990 6.712100 -33.163900 22.291600 -0.000001 0.000005 14.128200 5.474870 -5.547510 12.994500 -0.242716 -4.980390 87.969600 7.608970 -75.012400 -5.348130 -0.000001 -0.000004 -46.031100 19.461400 1.716410 -24.328900 0.000322 -0.000009 4.075530 7.788860 -27.740200 -22.291500 -0.000108 -0.000004 16.169500 5.425890 -3.798760 -2.192480 -6.469440 -0.000000 -177.047000 -18.880400 -1.118850 39.081100 -0.000007 -0.000012 -0.073629 0.204163 19.831100 40.985400 -0.000006 -0.000013 0.864605 3.619850 -65.413600 11.754300 -0.000000 0.000003 -0.000058 -0.000643 -16.602500 -2.192510 6.469440 -0.000001 174.284000 23.415000 178.026000 -39.081100 -0.002282 -0.040193 -0.051243 0.162390 18.573400 -40.985400 0.000008 0.000006 1.914080 26.962800 -63.179700 -11.754300 -0.000006 -0.000006 -0.003602 -0.047234 -18.494300
